{"title":"The Vow 2012 R5 DVDRip XVID AC3 5 1 HQ Hive-CM8","uid":7130242,"size":1624676078,"categoryP":"video","categoryS":"movies","magnet":"?xt=urn:btih:224c391a49a90aa51878d364db589f9356e6da82&amp;dn=The+Vow+2012+R5+DVDRip+XVID+AC3+5+1+HQ+Hive-CM8&amp;tr=udp%3A%2F%2Ftracker.openbittorrent.com%3A80&amp;tr=udp%3A%2F%2Fopen.demonii.com%3A1337&amp;tr=udp%3A%2F%2Ftracker.coppersurfer.tk%3A6969&amp;tr=udp%3A%2F%2Fexodus.desync.com%3A6969","seeders":2,"leechers":2,"uploader":"MisterNobody","files":-1,"time":1332682240,"description":"Thx Hive\n\nCM8 Doing It Right The First Time \n\nSources:\n\nVideo: Russian DVD-R\nKljatva.2012.D.DVD\n\nAudio: Inspiral\nthx guys, great line btw.\n\nEncode:\n\nDVD itself was ok, still needed some work done\nfixed brightness,contrast,rgb and denoise\nfor the audio not much to say, was very nice and sync already, made the usual cleanup just in case and entered it back into the russian 5.1 track.\nvery watchable now\nenjoy\n\nVideo: 720x304 @bitrate 1700 2pass\nAudio: English AC3 5.1 @448\nSample: yes included\n &lt;a href=&quot;\nhttp://www.imdb.com/title/tt1606389/&quot; rel=&quot;nofollow&quot; target=&quot;_NEW&quot;&gt;\nhttp://www.imdb.com/title/tt1606389/&lt;/a&gt;\n\n\nGeneral\nComplete name : The.Vow.2012.R5.DVDRip.XVID.AC3-5.1.HQ.Hive-CM8.avi\nFormat : AVI\nFormat/Info : Audio Video Interleave\nFile size : 1.50 GiB\nDuration : 1h 39mn\nOverall bit rate : 2 156 Kbps\nWriting application : Nandub v1.0rc2\nWriting library : Nandub build 1853/release\n\nVideo\nID : 0\nFormat : MPEG-4 Visual\nFormat profile : Advanced Simple@L5\nFormat settings, BVOP : 2\nFormat settings, QPel : Yes\nFormat settings, GMC : No warppoints\nFormat settings, Matrix : Default (H.263)\nMuxing mode : Packed bitstream\nCodec ID : XVID\nCodec ID/Hint : XviD\nDuration : 1h 39mn\nBit rate : 1 700 Kbps\nWidth : 720 pixels\nHeight : 304 pixels\nDisplay aspect ratio : 2.35:1\nFrame rate : 25.000 fps\nColor space : YUV\nChroma subsampling : 4:2:0\nBit depth : 8 bits\nScan type : Progressive\nCompression mode : Lossy\nBits/(Pixel*Frame) : 0.311\nStream size : 1.19 GiB (79%)\nWriting library : XviD 1.2.1 (UTC 2008-12-04)\n\nAudio\nID : 1\nFormat : AC-3\nFormat/Info : Audio Coding 3\nMode extension : CM (complete main)\nCodec ID : 2000\nDuration : 1h 39mn\nBit rate mode : Constant\nBit rate : 448 Kbps\nChannel(s) : 6 channels\nChannel positions : Front: L C R, Side: L R, LFE\nSampling rate : 48.0 KHz\nBit depth : 16 bits\nCompression mode : Lossy\nStream size : 319 MiB (21%)\nAlignment : Split accross interleaves\nInterleave, duration : 40 ms (1.00 video frame)\nInterleave, preload duration : 500 ms\n\nGreetz\n\nViSiON,SPK,SceneLovers,PRESTiGE,SANTi,3LT0N,YanKeeS,COPYxRIGHT,T0XiC\nD2U,LKRG,Feel-Free,FLAWL3SS,WBZ,BHRG,26K,NOVA,TED,MAGNET,THC,jtr\nUnevano,Rapeseed,SAFC,goldadvance,KaN1vE,Pinnz,Wayne\nMr Hive,and most P2P groups\nGreat Work Guys \n\nLOOKING FOR ANYTHING YOU WANT TO LOOK AND SOUND BETTER","torrent":{"xt":"urn:btih:224c391a49a90aa51878d364db589f9356e6da82","amp;dn":"The+Vow+2012+R5+DVDRip+XVID+AC3+5+1+HQ+Hive-CM8","amp;tr":["udp%3A%2F%2Ftracker.openbittorrent.com%3A80","udp%3A%2F%2Fopen.demonii.com%3A1337","udp%3A%2F%2Ftracker.coppersurfer.tk%3A6969","udp%3A%2F%2Fexodus.desync.com%3A6969"],"infoHash":"224c391a49a90aa51878d364db589f9356e6da82","infoHashBuffer":{"type":"Buffer","data":[34,76,57,26,73,169,10,165,24,120,211,100,219,88,159,147,86,230,218,130]},"announce":[],"urlList":[]}}